<mxfile host="65bd71144e">
    <diagram id="__Oi5u_AJO8s7NYYHDmQ" name="Page-1">
        <mxGraphModel dx="1329" dy="1229" grid="1" gridSize="10" guides="1" tooltips="1" connect="1" arrows="1" fold="1" page="1" pageScale="1" pageWidth="827" pageHeight="1169" math="0" shadow="0">
            <root>
                <mxCell id="0"/>
                <mxCell id="1" parent="0"/>
                <mxCell id="4" value="" style="group" parent="1" vertex="1" connectable="0">
                    <mxGeometry x="354" y="80" width="120" height="80" as="geometry"/>
                </mxCell>
                <mxCell id="2" value="Register&lt;br&gt;000" style="rounded=0;whiteSpace=wrap;html=1;" parent="4" vertex="1">
                    <mxGeometry width="120" height="80" as="geometry"/>
                </mxCell>
                <mxCell id="3" value="" style="triangle;whiteSpace=wrap;html=1;direction=north;" parent="4" vertex="1">
                    <mxGeometry x="45" y="57.5" width="30" height="22.5" as="geometry"/>
                </mxCell>
                <mxCell id="5" value="" style="group" parent="1" vertex="1" connectable="0">
                    <mxGeometry x="354" y="200" width="120" height="80" as="geometry"/>
                </mxCell>
                <mxCell id="6" value="Register&lt;br&gt;001" style="rounded=0;whiteSpace=wrap;html=1;" parent="5" vertex="1">
                    <mxGeometry width="120" height="80" as="geometry"/>
                </mxCell>
                <mxCell id="7" value="" style="triangle;whiteSpace=wrap;html=1;direction=north;" parent="5" vertex="1">
                    <mxGeometry x="45" y="57.5" width="30" height="22.5" as="geometry"/>
                </mxCell>
                <mxCell id="8" value="" style="group" parent="1" vertex="1" connectable="0">
                    <mxGeometry x="354" y="320" width="120" height="80" as="geometry"/>
                </mxCell>
                <mxCell id="9" value="Register&lt;br&gt;010" style="rounded=0;whiteSpace=wrap;html=1;" parent="8" vertex="1">
                    <mxGeometry width="120" height="80" as="geometry"/>
                </mxCell>
                <mxCell id="10" value="" style="triangle;whiteSpace=wrap;html=1;direction=north;" parent="8" vertex="1">
                    <mxGeometry x="45" y="57.5" width="30" height="22.5" as="geometry"/>
                </mxCell>
                <mxCell id="11" value="" style="group" parent="1" vertex="1" connectable="0">
                    <mxGeometry x="354" y="440" width="120" height="80" as="geometry"/>
                </mxCell>
                <mxCell id="12" value="Register&lt;br&gt;011" style="rounded=0;whiteSpace=wrap;html=1;" parent="11" vertex="1">
                    <mxGeometry width="120" height="80" as="geometry"/>
                </mxCell>
                <mxCell id="13" value="" style="triangle;whiteSpace=wrap;html=1;direction=north;" parent="11" vertex="1">
                    <mxGeometry x="45" y="57.5" width="30" height="22.5" as="geometry"/>
                </mxCell>
                <mxCell id="14" value="" style="group" parent="1" vertex="1" connectable="0">
                    <mxGeometry x="354" y="560" width="120" height="80" as="geometry"/>
                </mxCell>
                <mxCell id="15" value="Register&lt;br&gt;100" style="rounded=0;whiteSpace=wrap;html=1;" parent="14" vertex="1">
                    <mxGeometry width="120" height="80" as="geometry"/>
                </mxCell>
                <mxCell id="16" value="" style="triangle;whiteSpace=wrap;html=1;direction=north;" parent="14" vertex="1">
                    <mxGeometry x="45" y="57.5" width="30" height="22.5" as="geometry"/>
                </mxCell>
                <mxCell id="17" value="" style="group" parent="1" vertex="1" connectable="0">
                    <mxGeometry x="354" y="680" width="120" height="80" as="geometry"/>
                </mxCell>
                <mxCell id="18" value="Register&lt;br&gt;101" style="rounded=0;whiteSpace=wrap;html=1;" parent="17" vertex="1">
                    <mxGeometry width="120" height="80" as="geometry"/>
                </mxCell>
                <mxCell id="19" value="" style="triangle;whiteSpace=wrap;html=1;direction=north;" parent="17" vertex="1">
                    <mxGeometry x="45" y="57.5" width="30" height="22.5" as="geometry"/>
                </mxCell>
                <mxCell id="20" value="" style="group" parent="1" vertex="1" connectable="0">
                    <mxGeometry x="354" y="800" width="120" height="80" as="geometry"/>
                </mxCell>
                <mxCell id="21" value="Register&lt;br&gt;110" style="rounded=0;whiteSpace=wrap;html=1;" parent="20" vertex="1">
                    <mxGeometry width="120" height="80" as="geometry"/>
                </mxCell>
                <mxCell id="22" value="" style="triangle;whiteSpace=wrap;html=1;direction=north;" parent="20" vertex="1">
                    <mxGeometry x="45" y="57.5" width="30" height="22.5" as="geometry"/>
                </mxCell>
                <mxCell id="23" value="" style="group" parent="1" vertex="1" connectable="0">
                    <mxGeometry x="354" y="920" width="120" height="80" as="geometry"/>
                </mxCell>
                <mxCell id="24" value="Register&lt;br&gt;111" style="rounded=0;whiteSpace=wrap;html=1;" parent="23" vertex="1">
                    <mxGeometry width="120" height="80" as="geometry"/>
                </mxCell>
                <mxCell id="25" value="" style="triangle;whiteSpace=wrap;html=1;direction=north;" parent="23" vertex="1">
                    <mxGeometry x="45" y="57.5" width="30" height="22.5" as="geometry"/>
                </mxCell>
                <mxCell id="38" style="edgeStyle=none;html=1;exitX=1;exitY=0.5;exitDx=0;exitDy=0;entryX=0.1;entryY=0.5;entryDx=0;entryDy=0;entryPerimeter=0;fontSize=21;" parent="1" source="26" target="37" edge="1">
                    <mxGeometry relative="1" as="geometry"/>
                </mxCell>
                <mxCell id="26" value="Mux8Way16" style="triangle;whiteSpace=wrap;html=1;fontSize=21;&#10;points=[[0,0.1],[0,0.2],[0,0.3],[0,0.4],[0,0.5],[0,0.6],[0,0.7],[0,0.8],[0,0.9]]" parent="1" vertex="1">
                    <mxGeometry x="550" y="340" width="210" height="360" as="geometry"/>
                </mxCell>
                <mxCell id="30" style="html=1;exitX=1;exitY=0.5;exitDx=0;exitDy=0;entryX=-0.01;entryY=0.214;entryDx=0;entryDy=0;entryPerimeter=0;fontSize=21;" parent="1" source="6" target="26" edge="1">
                    <mxGeometry relative="1" as="geometry"/>
                </mxCell>
                <mxCell id="31" style="html=1;exitX=1;exitY=0.5;exitDx=0;exitDy=0;entryX=-0.005;entryY=0.325;entryDx=0;entryDy=0;entryPerimeter=0;fontSize=21;" parent="1" source="9" target="26" edge="1">
                    <mxGeometry relative="1" as="geometry"/>
                </mxCell>
                <mxCell id="32" style="html=1;exitX=1;exitY=0.5;exitDx=0;exitDy=0;entryX=-0.01;entryY=0.433;entryDx=0;entryDy=0;entryPerimeter=0;fontSize=21;" parent="1" source="12" target="26" edge="1">
                    <mxGeometry relative="1" as="geometry"/>
                </mxCell>
                <mxCell id="33" style="html=1;exitX=1;exitY=0.5;exitDx=0;exitDy=0;entryX=-0.005;entryY=0.558;entryDx=0;entryDy=0;entryPerimeter=0;fontSize=21;" parent="1" source="15" target="26" edge="1">
                    <mxGeometry relative="1" as="geometry"/>
                </mxCell>
                <mxCell id="34" style="html=1;exitX=1;exitY=0.5;exitDx=0;exitDy=0;entryX=-0.014;entryY=0.667;entryDx=0;entryDy=0;entryPerimeter=0;fontSize=21;" parent="1" source="18" target="26" edge="1">
                    <mxGeometry relative="1" as="geometry"/>
                </mxCell>
                <mxCell id="35" style="html=1;exitX=1;exitY=0.5;exitDx=0;exitDy=0;entryX=-0.005;entryY=0.775;entryDx=0;entryDy=0;entryPerimeter=0;fontSize=21;" parent="1" source="21" target="26" edge="1">
                    <mxGeometry relative="1" as="geometry"/>
                </mxCell>
                <mxCell id="36" style="html=1;exitX=1;exitY=0.5;exitDx=0;exitDy=0;entryX=-0.005;entryY=0.889;entryDx=0;entryDy=0;entryPerimeter=0;fontSize=21;" parent="1" source="24" target="26" edge="1">
                    <mxGeometry relative="1" as="geometry"/>
                </mxCell>
                <mxCell id="37" value="out" style="verticalLabelPosition=bottom;shadow=0;dashed=0;align=center;html=1;verticalAlign=top;shape=mxgraph.electrical.logic_gates.inverting_contact;fontSize=21;" parent="1" vertex="1">
                    <mxGeometry x="790" y="515" width="10" height="10" as="geometry"/>
                </mxCell>
                <mxCell id="40" style="edgeStyle=elbowEdgeStyle;html=1;entryX=0.595;entryY=0.306;entryDx=0;entryDy=0;entryPerimeter=0;fontSize=21;elbow=vertical;" parent="1" source="39" target="26" edge="1">
                    <mxGeometry relative="1" as="geometry"/>
                </mxCell>
                <mxCell id="42" style="edgeStyle=none;html=1;exitX=1;exitY=0.5;exitDx=0;exitDy=0;entryX=-0.009;entryY=0.09;entryDx=0;entryDy=0;entryPerimeter=0;fontSize=21;" parent="1" source="2" target="26" edge="1">
                    <mxGeometry relative="1" as="geometry"/>
                </mxCell>
                <mxCell id="43" value="" style="group" parent="1" vertex="1" connectable="0">
                    <mxGeometry x="560" y="80" width="100" height="30" as="geometry"/>
                </mxCell>
                <mxCell id="66" value="" style="edgeStyle=none;html=1;fontSize=21;" parent="43" source="39" target="41" edge="1">
                    <mxGeometry relative="1" as="geometry"/>
                </mxCell>
                <mxCell id="39" value="" style="verticalLabelPosition=bottom;shadow=0;dashed=0;align=center;html=1;verticalAlign=top;shape=mxgraph.electrical.logic_gates.inverting_contact;fontSize=21;" parent="43" vertex="1">
                    <mxGeometry y="10" width="10" height="10" as="geometry"/>
                </mxCell>
                <mxCell id="41" value="address" style="text;html=1;align=center;verticalAlign=middle;resizable=0;points=[];autosize=1;strokeColor=none;fontSize=21;" parent="43" vertex="1">
                    <mxGeometry x="10" width="90" height="30" as="geometry"/>
                </mxCell>
                <mxCell id="45" style="html=1;entryX=0;entryY=0.5;entryDx=0;entryDy=0;fontSize=21;" parent="1" source="44" target="2" edge="1">
                    <mxGeometry relative="1" as="geometry"/>
                </mxCell>
                <mxCell id="46" style="edgeStyle=none;html=1;entryX=0;entryY=0.5;entryDx=0;entryDy=0;fontSize=21;" parent="1" source="44" target="6" edge="1">
                    <mxGeometry relative="1" as="geometry"/>
                </mxCell>
                <mxCell id="47" style="edgeStyle=none;html=1;entryX=0;entryY=0.5;entryDx=0;entryDy=0;fontSize=21;" parent="1" source="44" target="9" edge="1">
                    <mxGeometry relative="1" as="geometry"/>
                </mxCell>
                <mxCell id="48" style="edgeStyle=none;html=1;exitX=0.9;exitY=0.5;exitDx=0;exitDy=0;exitPerimeter=0;entryX=0;entryY=0.5;entryDx=0;entryDy=0;fontSize=21;" parent="1" source="44" target="12" edge="1">
                    <mxGeometry relative="1" as="geometry"/>
                </mxCell>
                <mxCell id="49" style="edgeStyle=none;html=1;entryX=0;entryY=0.5;entryDx=0;entryDy=0;fontSize=21;" parent="1" source="44" target="15" edge="1">
                    <mxGeometry relative="1" as="geometry"/>
                </mxCell>
                <mxCell id="50" style="edgeStyle=none;html=1;exitX=0.9;exitY=0.5;exitDx=0;exitDy=0;exitPerimeter=0;entryX=0;entryY=0.5;entryDx=0;entryDy=0;fontSize=21;" parent="1" source="44" target="18" edge="1">
                    <mxGeometry relative="1" as="geometry"/>
                </mxCell>
                <mxCell id="51" style="edgeStyle=none;html=1;entryX=0;entryY=0.5;entryDx=0;entryDy=0;fontSize=21;" parent="1" source="44" target="21" edge="1">
                    <mxGeometry relative="1" as="geometry"/>
                </mxCell>
                <mxCell id="52" style="edgeStyle=none;html=1;exitX=0.9;exitY=0.5;exitDx=0;exitDy=0;exitPerimeter=0;entryX=0.008;entryY=0.569;entryDx=0;entryDy=0;entryPerimeter=0;fontSize=21;" parent="1" source="44" target="24" edge="1">
                    <mxGeometry relative="1" as="geometry"/>
                </mxCell>
                <mxCell id="44" value="in" style="verticalLabelPosition=bottom;shadow=0;dashed=0;align=center;html=1;verticalAlign=top;shape=mxgraph.electrical.logic_gates.inverting_contact;fontSize=21;" parent="1" vertex="1">
                    <mxGeometry x="70" y="525" width="10" height="10" as="geometry"/>
                </mxCell>
                <mxCell id="53" value="DMux8Way" style="triangle;whiteSpace=wrap;html=1;fontSize=21;&#10;points=[[0,0.1],[0,0.2],[0,0.3],[0,0.4],[0,0.5],[0,0.6],[0,0.7],[0,0.8],[0,0.9]];direction=west;" parent="1" vertex="1">
                    <mxGeometry x="90" y="40" width="140" height="260" as="geometry"/>
                </mxCell>
                <mxCell id="56" style="edgeStyle=none;html=1;exitX=0.5;exitY=0;exitDx=0;exitDy=0;entryX=0;entryY=0.909;entryDx=0;entryDy=0;entryPerimeter=0;fontSize=21;shape=link;" parent="1" source="2" target="53" edge="1">
                    <mxGeometry relative="1" as="geometry"/>
                </mxCell>
                <mxCell id="57" style="edgeStyle=none;html=1;exitX=0.5;exitY=0;exitDx=0;exitDy=0;entryX=0;entryY=0.794;entryDx=0;entryDy=0;entryPerimeter=0;fontSize=21;shape=link;" parent="1" source="6" target="53" edge="1">
                    <mxGeometry relative="1" as="geometry"/>
                </mxCell>
                <mxCell id="58" style="edgeStyle=none;html=1;exitX=0.5;exitY=0;exitDx=0;exitDy=0;entryX=0.012;entryY=0.685;entryDx=0;entryDy=0;entryPerimeter=0;fontSize=21;shape=link;" parent="1" source="9" target="53" edge="1">
                    <mxGeometry relative="1" as="geometry"/>
                </mxCell>
                <mxCell id="59" style="edgeStyle=none;html=1;exitX=0.5;exitY=0;exitDx=0;exitDy=0;entryX=0.012;entryY=0.537;entryDx=0;entryDy=0;entryPerimeter=0;fontSize=21;shape=link;" parent="1" source="12" target="53" edge="1">
                    <mxGeometry relative="1" as="geometry"/>
                </mxCell>
                <mxCell id="60" style="edgeStyle=none;html=1;exitX=0.5;exitY=0;exitDx=0;exitDy=0;entryX=0.012;entryY=0.422;entryDx=0;entryDy=0;entryPerimeter=0;fontSize=21;shape=link;" parent="1" source="15" target="53" edge="1">
                    <mxGeometry relative="1" as="geometry"/>
                </mxCell>
                <mxCell id="61" style="edgeStyle=none;html=1;exitX=0.5;exitY=0;exitDx=0;exitDy=0;entryX=0;entryY=0.313;entryDx=0;entryDy=0;entryPerimeter=0;fontSize=21;shape=link;" parent="1" source="18" target="53" edge="1">
                    <mxGeometry relative="1" as="geometry"/>
                </mxCell>
                <mxCell id="62" style="edgeStyle=none;html=1;exitX=0.5;exitY=0;exitDx=0;exitDy=0;entryX=-0.012;entryY=0.165;entryDx=0;entryDy=0;entryPerimeter=0;fontSize=21;shape=link;" parent="1" source="21" target="53" edge="1">
                    <mxGeometry relative="1" as="geometry"/>
                </mxCell>
                <mxCell id="63" style="edgeStyle=none;html=1;exitX=0.5;exitY=0;exitDx=0;exitDy=0;entryX=-0.036;entryY=0.044;entryDx=0;entryDy=0;entryPerimeter=0;fontSize=21;shape=link;" parent="1" source="24" target="53" edge="1">
                    <mxGeometry relative="1" as="geometry"/>
                </mxCell>
                <mxCell id="65" style="edgeStyle=none;html=1;exitX=0.1;exitY=0.5;exitDx=0;exitDy=0;exitPerimeter=0;fontSize=21;entryX=0.5;entryY=1;entryDx=0;entryDy=0;" parent="1" source="39" target="53" edge="1">
                    <mxGeometry relative="1" as="geometry">
                        <mxPoint x="190" y="20" as="targetPoint"/>
                        <Array as="points">
                            <mxPoint x="200" y="10"/>
                        </Array>
                    </mxGeometry>
                </mxCell>
                <mxCell id="71" style="edgeStyle=none;html=1;exitX=0.1;exitY=0.5;exitDx=0;exitDy=0;exitPerimeter=0;entryX=0.987;entryY=0.494;entryDx=0;entryDy=0;fontSize=21;entryPerimeter=0;" parent="1" source="69" target="53" edge="1">
                    <mxGeometry relative="1" as="geometry">
                        <mxPoint x="-50" y="60" as="targetPoint"/>
                    </mxGeometry>
                </mxCell>
                <mxCell id="69" value="" style="verticalLabelPosition=bottom;shadow=0;dashed=0;align=center;html=1;verticalAlign=top;shape=mxgraph.electrical.logic_gates.inverting_contact;fontSize=21;" parent="1" vertex="1">
                    <mxGeometry x="20" y="60" width="10" height="10" as="geometry"/>
                </mxCell>
                <mxCell id="70" value="load" style="text;html=1;align=center;verticalAlign=middle;resizable=0;points=[];autosize=1;strokeColor=none;fontSize=21;" parent="1" vertex="1">
                    <mxGeometry x="30" y="50" width="60" height="30" as="geometry"/>
                </mxCell>
            </root>
        </mxGraphModel>
    </diagram>
</mxfile>